<svg width="132" height="32" viewBox="0 0 132 32" fill="none" xmlns="http://www.w3.org/2000/svg">
<path d="M0 4.97211V2.97477H12.9618V4.97211L9.22204 5.39708C9.1937 7.15361 9.16537 8.93847 9.13704 10.7517C9.13704 12.5365 9.13704 14.3355 9.13704 16.1487V18.741C9.13704 20.2426 9.13704 21.8575 9.13704 23.5857C9.16537 25.3139 9.1937 27.0704 9.22204 28.8552H17.8066L18.9965 22.9907H21.9714L21.5464 31.1501H0V29.1527L3.56982 28.7703C3.62648 26.9854 3.65482 25.2289 3.65482 23.5007C3.65482 21.7441 3.65482 20.0584 3.65482 18.4436V16.1487C3.65482 14.3072 3.65482 12.494 3.65482 10.7092C3.65482 8.89597 3.62648 7.11111 3.56982 5.35458L0 4.97211Z" fill="#073487"/>
<path d="M41.0048 31.66C39.8715 31.66 38.9507 31.3767 38.2424 30.8101C37.5341 30.2435 37.0525 29.4644 36.7975 28.4728C35.7492 29.5494 34.8001 30.371 33.9501 30.9376C33.1002 31.4759 31.9952 31.745 30.6353 31.745C29.0487 31.745 27.703 31.2917 26.598 30.3851C25.5214 29.4502 24.9831 28.1186 24.9831 26.3904C24.9831 25.4838 25.1956 24.6481 25.6206 23.8831C26.0455 23.0899 26.7963 22.3533 27.873 21.6733C28.9779 20.9934 30.5503 20.3276 32.5902 19.676C33.1569 19.4776 33.7943 19.2793 34.5026 19.081C35.2109 18.8827 35.9334 18.6844 36.67 18.4861V17.2961C36.67 15.313 36.3867 13.9814 35.82 13.3015C35.2817 12.5932 34.3185 12.239 32.9302 12.239C32.6752 12.239 32.3919 12.2532 32.0802 12.2815C31.7969 12.3099 31.4994 12.3524 31.1878 12.409L30.6778 14.7463C30.5645 15.7663 30.267 16.517 29.7854 16.9987C29.3037 17.4803 28.7087 17.7211 28.0004 17.7211C26.6405 17.7211 25.8472 17.0837 25.6206 15.8088C25.8756 14.1089 26.7822 12.749 28.3404 11.7291C29.927 10.7092 32.0094 10.1992 34.5876 10.1992C37.0525 10.1992 38.8516 10.7942 39.9848 11.9841C41.1181 13.1456 41.6848 15.1147 41.6848 17.8911V27.1554C41.6848 28.4303 42.0956 29.0677 42.9172 29.0677C43.4555 29.0677 43.9513 28.7561 44.4046 28.1328L45.3821 28.9827C44.8721 29.946 44.263 30.6401 43.5547 31.0651C42.8747 31.4617 42.0247 31.66 41.0048 31.66ZM29.9553 25.498C29.9553 26.6029 30.2387 27.4104 30.8053 27.9203C31.4003 28.4019 32.1227 28.6428 32.9727 28.6428C33.4543 28.6428 33.936 28.5294 34.4176 28.3028C34.8993 28.0761 35.6501 27.6087 36.67 26.9004V20.1859C36.075 20.3842 35.5084 20.5684 34.9701 20.7384C34.4601 20.9084 34.021 21.0642 33.6527 21.2058C32.2361 21.7725 31.2586 22.4241 30.7203 23.1607C30.2103 23.8973 29.9553 24.6764 29.9553 25.498Z" fill="#073487"/>
<path d="M46.6796 31.1501V29.4077L49.4419 28.8977C49.4703 27.8495 49.4844 26.7162 49.4844 25.498C49.5128 24.2514 49.5269 23.1607 49.5269 22.2258V3.95219L46.4246 3.56972V1.91235L54.0317 0L54.6692 0.38247L54.4992 6.3745V13.2165C56.3974 11.205 58.5082 10.1992 60.8314 10.1992C62.3613 10.1992 63.7496 10.61 64.9962 11.4316C66.2428 12.2532 67.2202 13.4573 67.9285 15.0438C68.6651 16.602 69.0335 18.5144 69.0335 20.7809C69.0335 23.019 68.6226 24.9597 67.801 26.6029C67.0077 28.2461 65.9453 29.521 64.6137 30.4276C63.2821 31.3059 61.7947 31.745 60.1514 31.745C59.0465 31.745 58.0123 31.5325 57.0491 31.1076C56.1141 30.6826 55.2358 29.9743 54.4142 28.9827L53.8617 31.66L46.6796 31.1501ZM58.7915 13.2165C58.1398 13.2165 57.4599 13.3865 56.7516 13.7264C56.0716 14.0664 55.3633 14.548 54.6267 15.1713V26.9429C55.9299 28.1611 57.2615 28.7703 58.6215 28.7703C60.0097 28.7703 61.1855 28.1328 62.1488 26.8579C63.1121 25.583 63.5937 23.6423 63.5937 21.0359C63.5937 18.4011 63.1404 16.4462 62.2338 15.1713C61.3555 13.8681 60.2081 13.2165 58.7915 13.2165Z" fill="#073487"/>
<path d="M79.2233 31.745C77.92 31.745 76.7159 31.5892 75.611 31.2776C74.5344 30.9942 73.4578 30.5551 72.3812 29.9602L72.3387 25.0305H75.186L75.951 28.9827C76.9709 29.4077 78.0759 29.6202 79.2658 29.6202C80.7107 29.6202 81.7873 29.3652 82.4956 28.8552C83.2039 28.3453 83.5581 27.637 83.5581 26.7304C83.5581 25.9371 83.2748 25.2997 82.7081 24.8181C82.1415 24.3081 81.1782 23.8265 79.8183 23.3732L77.6934 22.6507C76.1068 22.1408 74.846 21.39 73.9111 20.3984C73.0045 19.4068 72.5511 18.1602 72.5511 16.6587C72.5511 15.4688 72.8628 14.3922 73.4861 13.429C74.1094 12.4374 75.016 11.6583 76.206 11.0916C77.4242 10.4967 78.8975 10.1992 80.6257 10.1992C81.844 10.1992 82.949 10.355 83.9406 10.6667C84.9605 10.95 85.9663 11.3749 86.9579 11.9416L86.7454 16.4037H83.9406L83.1756 12.834C82.3823 12.494 81.504 12.324 80.5407 12.324C79.4075 12.324 78.5292 12.5649 77.9059 13.0465C77.2826 13.5281 76.9709 14.1797 76.9709 15.0013C76.9709 15.7663 77.2259 16.3896 77.7359 16.8712C78.2742 17.3245 79.2658 17.7919 80.7107 18.2736L82.4106 18.7835C84.4789 19.4918 85.9521 20.3701 86.8304 21.4183C87.7087 22.4666 88.1479 23.7273 88.1479 25.2005C88.1479 27.0987 87.3687 28.6711 85.8105 29.9177C84.2806 31.1359 82.0848 31.745 79.2233 31.745Z" fill="#073487"/>
<path d="M110.134 22.7782C110.134 24.6481 109.68 26.2629 108.774 27.6228C107.867 28.9544 106.62 29.9743 105.034 30.6826C103.476 31.3909 101.662 31.745 99.5941 31.745C97.1575 31.745 95.2168 31.1784 93.7719 30.0452C92.3553 28.9119 91.4911 27.3112 91.1795 25.243C91.4061 24.6764 91.732 24.2656 92.1569 24.0106C92.5819 23.7273 93.0636 23.5857 93.6019 23.5857C94.3668 23.5857 94.9618 23.8265 95.3868 24.3081C95.8117 24.7614 96.1376 25.5972 96.3642 26.8154L96.8317 29.4077C97.5117 29.5777 98.1916 29.6627 98.8716 29.6627C100.713 29.6627 102.144 29.0961 103.164 27.9628C104.212 26.8296 104.736 25.2997 104.736 23.3732C104.736 21.305 104.198 19.7326 103.121 18.656C102.073 17.5795 100.628 17.0412 98.7866 17.0412C98.135 17.0412 97.4692 17.0837 96.7892 17.1687C96.1376 17.2537 95.4859 17.367 94.8343 17.5086L93.6444 16.9562L94.5368 3.99469H109.241V8.32935H96.6192L96.1942 14.6614C97.4125 14.378 98.7583 14.2364 100.232 14.2364C103.235 14.2364 105.629 14.973 107.414 16.4462C109.227 17.8911 110.134 20.0018 110.134 22.7782Z" fill="#073487"/>
<path d="M117.976 11.8566C117.976 13.8964 118.443 15.4121 119.378 16.4037C120.313 17.3953 121.489 17.8911 122.905 17.8911C124.379 17.8911 125.639 17.4661 126.688 16.6162C126.716 16.3046 126.73 15.9929 126.73 15.6813C126.73 15.3696 126.73 15.058 126.73 14.7463C126.73 11.3183 126.334 8.9243 125.54 7.56441C124.747 6.17618 123.685 5.48207 122.353 5.48207C121.163 5.48207 120.129 6.0062 119.251 7.05445C118.401 8.07437 117.976 9.67508 117.976 11.8566ZM132 14.6614C132 17.4661 131.377 20.0584 130.13 22.4382C128.912 24.7897 127.07 26.7871 124.605 28.4303C122.169 30.0735 119.109 31.2634 115.426 32L115.001 30.1301C118.627 28.9402 121.319 27.467 123.075 25.7105C124.86 23.9256 125.979 21.6166 126.433 18.7835C125.724 19.3502 124.931 19.7893 124.053 20.1009C123.203 20.4126 122.24 20.5684 121.163 20.5684C119.605 20.5684 118.188 20.2426 116.913 19.591C115.667 18.9394 114.675 18.0044 113.938 16.7862C113.202 15.568 112.833 14.0947 112.833 12.3665C112.833 10.5533 113.258 8.98096 114.108 7.6494C114.958 6.28951 116.106 5.24126 117.551 4.50465C118.996 3.76804 120.596 3.39973 122.353 3.39973C125.441 3.39973 127.821 4.40549 129.493 6.417C131.164 8.42851 132 11.1766 132 14.6614Z" fill="#073487"/>
</svg>
